<svg width="100%" height="100%" viewBox="0 0 1400 800" xmlns="http://www.w3.org/2000/svg">
  <defs>
    <radialGradient id="bgGradient" cx="50%" cy="50%" r="70%" fx="50%" fy="50%">
      <stop offset="0%" stop-color="#1a1a3a" />
      <stop offset="100%" stop-color="#080810" />
    </radialGradient>
    
    <filter id="glow" x="-50%" y="-50%" width="200%" height="200%">
      <feGaussianBlur stdDeviation="2" result="blur" />
      <feComposite in="SourceGraphic" in2="blur" operator="over" />
    </filter>
  </defs>
  
  <!-- Background -->
  <rect width="100%" height="100%" fill="url(#bgGradient)" />
  
  <!-- Stars -->
  <g opacity="0.6" filter="url(#glow)">
    <circle cx="150" cy="100" r="1" fill="white" />
    <circle cx="250" cy="150" r="1.2" fill="white" />
    <circle cx="350" cy="50" r="0.8" fill="white" />
    <circle cx="450" cy="200" r="1.1" fill="white" />
    <circle cx="550" cy="120" r="0.9" fill="white" />
    <circle cx="650" cy="80" r="1" fill="white" />
    <circle cx="750" cy="170" r="1.2" fill="white" />
    <circle cx="850" cy="90" r="0.7" fill="white" />
    <circle cx="950" cy="220" r="1" fill="white" />
    <circle cx="1050" cy="130" r="0.8" fill="white" />
    <circle cx="1150" cy="60" r="1.1" fill="white" />
    <circle cx="1250" cy="180" r="0.9" fill="white" />
    <circle cx="120" cy="250" r="1" fill="white" />
    <circle cx="220" cy="300" r="0.8" fill="white" />
    <circle cx="320" cy="230" r="1.2" fill="white" />
    <circle cx="420" cy="350" r="0.9" fill="white" />
    <circle cx="520" cy="270" r="1" fill="white" />
    <circle cx="620" cy="310" r="0.7" fill="white" />
    <circle cx="720" cy="240" r="1.1" fill="white" />
    <circle cx="820" cy="330" r="0.8" fill="white" />
    <circle cx="920" cy="260" r="1" fill="white" />
    <circle cx="1020" cy="320" r="0.9" fill="white" />
    <circle cx="1120" cy="250" r="1.2" fill="white" />
    <circle cx="1220" cy="340" r="0.7" fill="white" />
    <circle cx="180" cy="400" r="1" fill="white" />
    <circle cx="280" cy="450" r="0.8" fill="white" />
    <circle cx="380" cy="380" r="1.1" fill="white" />
    <circle cx="480" cy="470" r="0.9" fill="white" />
    <circle cx="580" cy="410" r="1" fill="white" />
    <circle cx="680" cy="460" r="0.7" fill="white" />
    <circle cx="780" cy="390" r="1.2" fill="white" />
    <circle cx="880" cy="480" r="0.8" fill="white" />
    <circle cx="980" cy="420" r="1" fill="white" />
    <circle cx="1080" cy="470" r="0.9" fill="white" />
    <circle cx="1180" cy="400" r="1.1" fill="white" />
    <circle cx="1280" cy="450" r="0.7" fill="white" />
    <circle cx="150" cy="550" r="1" fill="white" />
    <circle cx="250" cy="600" r="0.8" fill="white" />
    <circle cx="350" cy="530" r="1.2" fill="white" />
    <circle cx="450" cy="620" r="0.9" fill="white" />
    <circle cx="550" cy="560" r="1" fill="white" />
    <circle cx="650" cy="610" r="0.7" fill="white" />
    <circle cx="750" cy="540" r="1.1" fill="white" />
    <circle cx="850" cy="630" r="0.8" fill="white" />
    <circle cx="950" cy="570" r="1" fill="white" />
    <circle cx="1050" cy="620" r="0.9" fill="white" />
    <circle cx="1150" cy="550" r="1.2" fill="white" />
    <circle cx="1250" cy="600" r="0.7" fill="white" />
    <circle cx="200" cy="700" r="1" fill="white" />
    <circle cx="300" cy="750" r="0.8" fill="white" />
    <circle cx="400" cy="680" r="1.1" fill="white" />
    <circle cx="500" cy="750" r="0.9" fill="white" />
    <circle cx="600" cy="700" r="1" fill="white" />
    <circle cx="700" cy="760" r="0.7" fill="white" />
    <circle cx="800" cy="690" r="1.2" fill="white" />
    <circle cx="900" cy="770" r="0.8" fill="white" />
    <circle cx="1000" cy="710" r="1" fill="white" />
    <circle cx="1100" cy="760" r="0.9" fill="white" />
    <circle cx="1200" cy="700" r="1.1" fill="white" />
    <circle cx="1300" cy="750" r="0.7" fill="white" />
  </g>
  
  <!-- Nebula-like elements -->
  <g opacity="0.15">
    <ellipse cx="400" cy="300" rx="300" ry="150" fill="#9333ea" />
    <ellipse cx="1000" cy="500" rx="250" ry="200" fill="#3b82f6" />
    <ellipse cx="700" cy="700" rx="200" ry="100" fill="#9333ea" />
  </g>
  
  <!-- Subtle grid lines -->
  <g stroke="#ffffff" stroke-opacity="0.03">
    <line x1="0" y1="200" x2="1400" y2="200" />
    <line x1="0" y1="400" x2="1400" y2="400" />
    <line x1="0" y1="600" x2="1400" y2="600" />
    <line x1="350" y1="0" x2="350" y2="800" />
    <line x1="700" y1="0" x2="700" y2="800" />
    <line x1="1050" y1="0" x2="1050" y2="800" />
  </g>
  
  <!-- Mystical symbols -->
  <g opacity="0.1" fill="#ffffff">
    <path d="M700,100 m-20,0 a20,20 0 1,0 40,0 a20,20 0 1,0 -40,0 m20,-20 v40 m-20,-20 h40" />
    <path d="M350,450 m-15,0 l30,0 m-15,-15 l0,30 m-20,-15 l40,0" />
    <path d="M1050,300 m0,0 l-15,-15 l15,-15 l15,15 l-15,15 m-15,-15 l30,0" />
    <path d="M850,650 m-20,0 a20,20 0 1,0 40,0 a20,20 0 1,0 -40,0 m-10,-10 l20,20 m0,-20 l-20,20" />
    <path d="M500,200 m0,-20 l0,40 m-20,-20 l40,0 m-20,-20 l-20,20 l20,20 l20,-20 l-20,-20" />
  </g>
</svg>
